<?xml version="1.0" standalone="no"?>
<!DOCTYPE svg PUBLIC "-//W3C//DTD SVG 20010904//EN"
 "http://www.w3.org/TR/2001/REC-SVG-20010904/DTD/svg10.dtd">
<svg version="1.0" xmlns="http://www.w3.org/2000/svg"
 width="1080.000000pt" height="1080.000000pt" viewBox="0 0 1080.000000 1080.000000"
 preserveAspectRatio="xMidYMid meet">

<g transform="translate(0.000000,1080.000000) scale(0.100000,-0.100000)"
fill="#000000" stroke="none">
<path d="M1383 7701 c-24 -43 -71 -118 -105 -167 -76 -106 -286 -325 -423
-441 -148 -124 -397 -287 -592 -386 l-173 -88 0 -366 c0 -344 1 -365 18 -358
9 3 60 22 112 42 251 92 635 302 882 479 l88 63 2 -1692 3 -1692 370 0 370 0
3 2343 2 2342 -257 0 -258 0 -42 -79z"/>
<path d="M4485 7770 c-173 -22 -373 -90 -509 -173 -412 -251 -678 -730 -775
-1398 -34 -228 -42 -352 -48 -689 -6 -330 3 -544 32 -785 118 -979 507 -1525
1193 -1677 83 -19 130 -22 322 -22 249 -1 338 12 519 76 464 164 799 606 942
1244 61 274 87 530 96 929 16 769 -72 1287 -293 1728 -207 411 -523 662 -944
749 -109 22 -418 33 -535 18z m417 -673 c137 -50 255 -145 354 -283 115 -160
183 -422 226 -859 17 -178 17 -925 0 -1110 -40 -427 -112 -699 -227 -861 -112
-157 -250 -259 -406 -299 -49 -13 -92 -16 -179 -12 -99 4 -125 8 -187 34 -39
17 -100 51 -135 76 -273 197 -384 503 -429 1187 -15 238 -6 838 16 1043 58
546 188 864 415 1016 117 77 209 101 370 97 92 -3 128 -9 182 -29z"/>
<path d="M6510 7757 c0 -1 357 -504 794 -1117 467 -655 792 -1119 787 -1125
-67 -86 -1791 -2416 -1791 -2420 0 -3 213 -5 473 -5 l474 0 585 813 c322 446
613 854 646 905 l60 94 43 -64 c23 -35 310 -442 636 -905 l594 -843 480 0
c316 0 479 3 479 10 0 6 -393 558 -872 1228 -480 669 -872 1222 -872 1228 1 8
1397 1889 1612 2172 l24 32 -444 0 -444 0 -259 -342 c-580 -764 -800 -1058
-863 -1148 -36 -52 -68 -99 -72 -103 -4 -4 -59 70 -123 165 -64 95 -316 454
-559 798 l-444 625 -472 3 c-260 1 -472 1 -472 -1z"/>
</g>
</svg>
